<?xml version="1.0" standalone="no"?>
<!DOCTYPE svg PUBLIC "-//W3C//DTD SVG 20010904//EN"
 "http://www.w3.org/TR/2001/REC-SVG-20010904/DTD/svg10.dtd">
<svg version="1.0" xmlns="http://www.w3.org/2000/svg"
 width="850.000000pt" height="850.000000pt" viewBox="0 0 850.000000 850.000000"
 preserveAspectRatio="xMidYMid meet">
<metadata>
Created by potrace 1.11, written by Peter Selinger 2001-2013
</metadata>
<g transform="translate(0.000000,850.000000) scale(0.100000,-0.100000)"
fill="#000000" stroke="none">
<path d="M4175 8488 c-86 -9 -161 -28 -240 -61 -86 -36 -115 -51 -115 -59 0
-5 -5 -8 -10 -8 -6 0 -40 -18 -76 -40 -36 -22 -67 -40 -69 -40 -1 0 -54 -30
-116 -66 -63 -37 -213 -124 -334 -194 -121 -70 -264 -152 -317 -184 -151 -87
-290 -167 -323 -186 -26 -14 -207 -119 -325 -188 -19 -11 -87 -50 -150 -86
-135 -78 -156 -90 -360 -209 -85 -49 -168 -97 -185 -107 -16 -9 -88 -51 -160
-92 -71 -42 -146 -85 -165 -96 -19 -11 -91 -52 -160 -92 -69 -40 -145 -84
-170 -98 -149 -84 -244 -179 -330 -332 -23 -41 -42 -77 -42 -80 0 -3 -5 -16
-10 -30 -5 -14 -19 -63 -30 -110 -20 -83 -20 -112 -19 -1075 4 -2259 7 -2655
25 -2719 52 -186 159 -351 302 -463 41 -32 137 -91 274 -168 41 -23 120 -68
175 -100 55 -32 115 -66 132 -77 51 -28 100 -56 136 -77 30 -18 518 -298 856
-493 84 -48 154 -88 156 -88 1 0 44 -25 94 -55 51 -30 94 -55 97 -55 2 0 33
-17 67 -38 78 -47 82 -50 197 -115 52 -30 226 -130 385 -222 160 -92 310 -179
335 -193 25 -14 64 -38 88 -54 119 -81 272 -128 432 -133 185 -6 327 31 491
127 52 31 139 81 194 113 55 32 170 98 255 148 85 49 202 117 260 150 58 33
119 68 135 78 30 18 92 54 177 102 26 15 113 66 195 113 81 48 164 96 183 106
149 85 442 255 472 275 21 12 40 23 43 23 3 0 24 12 48 27 23 14 67 40 97 56
30 16 62 36 71 43 8 8 18 14 22 14 3 0 30 14 59 31 51 31 337 196 408 237 369
210 400 230 474 306 106 111 179 240 219 389 l22 82 -2 1430 c-2 2366 -1 2208
-24 2300 -40 154 -121 296 -230 402 -78 75 -107 95 -374 248 -132 76 -283 163
-335 193 -52 31 -124 72 -160 92 -36 20 -125 71 -198 114 -74 43 -155 89 -180
103 -26 14 -76 43 -111 65 -34 21 -64 38 -66 38 -2 0 -43 23 -92 51 -48 29
-106 62 -128 74 -22 13 -80 46 -130 75 -104 61 -114 67 -255 147 -58 33 -181
104 -275 158 -216 125 -679 391 -725 417 -19 11 -64 37 -100 58 -107 62 -213
90 -390 104 -14 1 -57 -2 -95 -6z"/>
</g>
</svg>
